<svg
  width="50"
  height="50"
  viewBox="0 0 50 50"
  fill="none"
  xmlns="http://www.w3.org/2000/svg"
>
  <path
    d="M8.333 14.583C8.333 11.23 8.333 9.722 9.032 9.023C9.732 8.333 11.23 8.333 14.583 8.333C17.936 8.333 19.444 8.333 20.143 9.023C20.833 9.722 20.833 11.23 20.833 14.583V35.417C20.833 38.77 20.833 40.278 20.143 40.977C19.444 41.667 17.936 41.667 14.583 41.667C11.23 41.667 9.722 41.667 9.023 40.977C8.333 40.278 8.333 38.77 8.333 35.417V14.583Z"
    stroke="#141B34"
    stroke-width="2.125"
  />
  <path
    d="M29.167 14.583C29.167 11.23 29.167 9.722 29.866 9.023C30.566 8.333 32.064 8.333 35.417 8.333C38.77 8.333 40.278 8.333 40.977 9.023C41.667 9.722 41.667 11.23 41.667 14.583V35.417C41.667 38.77 41.667 40.278 40.977 40.977C40.278 41.667 38.77 41.667 35.417 41.667C32.064 41.667 30.556 41.667 29.857 40.977C29.167 40.278 29.167 38.77 29.167 35.417V14.583Z"
    stroke="#141B34"
    stroke-width="2.125"
  />
</svg>

